<mxfile host="app.diagrams.net" modified="2022-01-08T04:40:08.936Z" agent="5.0 (Windows NT 10.0; WOW64) AppleWebKit/537.36 (KHTML, like Gecko) Chrome/75.0.3770.100 Safari/537.36" etag="Ys7qcvC9EZ7dUmX04rNY" version="16.2.4" type="github">
  <diagram id="8eovqbJWDS8WgTomdVpg" name="Page-1">
    <mxGraphModel dx="1038" dy="544" grid="1" gridSize="10" guides="1" tooltips="1" connect="1" arrows="1" fold="1" page="1" pageScale="1" pageWidth="827" pageHeight="1169" math="0" shadow="0">
      <root>
        <mxCell id="0" />
        <mxCell id="1" parent="0" />
        <mxCell id="ovP7iFUilXgdzfB6hPeC-3" value="" style="edgeStyle=orthogonalEdgeStyle;rounded=0;orthogonalLoop=1;jettySize=auto;html=1;" edge="1" parent="1" source="ovP7iFUilXgdzfB6hPeC-1" target="ovP7iFUilXgdzfB6hPeC-2">
          <mxGeometry relative="1" as="geometry" />
        </mxCell>
        <mxCell id="ovP7iFUilXgdzfB6hPeC-1" value="" style="rounded=0;whiteSpace=wrap;html=1;" vertex="1" parent="1">
          <mxGeometry x="350" y="250" width="120" height="60" as="geometry" />
        </mxCell>
        <mxCell id="ovP7iFUilXgdzfB6hPeC-2" value="" style="whiteSpace=wrap;html=1;rounded=0;" vertex="1" parent="1">
          <mxGeometry x="550" y="250" width="120" height="60" as="geometry" />
        </mxCell>
      </root>
    </mxGraphModel>
  </diagram>
</mxfile>
